<?xml version="1.0" encoding="utf-8"?>
<!-- Generator: Adobe Illustrator 24.1.2, SVG Export Plug-In . SVG Version: 6.00 Build 0)  -->
<svg version="1.1" id="Layer_1" xmlns="http://www.w3.org/2000/svg" xmlns:xlink="http://www.w3.org/1999/xlink" x="0px" y="0px"
	 viewBox="0 0 3000 3000" style="enable-background:new 0 0 3000 3000;" xml:space="preserve">
<style type="text/css">
	.st0{fill:#FFFFFF;}
</style>
<g>
	<path class="st0" d="M671.7,1317.4v276.2H484.8V1513l204.4-584.8V739.1H267.4L0,1508.7V1974h671.7v286.9h476.2v-943.5H671.7z"/>
	<path class="st0" d="M1321.7,739.1V937l76,182.5h398V739.1H1321.7z M1321.7,1316.6v944.3h474v-944.3L1321.7,1316.6L1321.7,1316.6z"
		/>
	<path class="st0" d="M2806.6,1347.8l184.7-245.6V739.1H1926.1v189.1l76,193.5h432.6v80.4l-252.2,232.6v237h343.5v210.9h-600v378.3
		h884.8c110.9,0,189.1-78.3,189.1-189.1v-526.1C3000,1421.8,2926.1,1356.5,2806.6,1347.8z"/>
</g>
</svg>
