<?xml version="1.0" encoding="utf-8"?>
<!-- Generator: Adobe Illustrator 24.1.2, SVG Export Plug-In . SVG Version: 6.00 Build 0)  -->
<svg version="1.0" id="Layer_1" xmlns="http://www.w3.org/2000/svg" xmlns:xlink="http://www.w3.org/1999/xlink" x="0px" y="0px"
	 viewBox="0 0 3000 3000" style="enable-background:new 0 0 3000 3000;" xml:space="preserve">
<style type="text/css">
	.st0{fill:#FFFFFF;}
</style>
<g>
	<path class="st0" d="M349.49,1232.37v534.51h-67.91L67.55,1354.62v412.26H0v-534.51h67.55l215.12,413.36v-413.36H349.49z"/>
	<polygon class="st0" points="753.31,1709.24 753.31,1766.88 465.86,1766.88 465.86,1232.37 749.63,1232.37 749.63,1290.37 
		533.4,1290.37 533.4,1462.18 722.1,1462.18 722.1,1519.82 533.4,1519.82 533.4,1709.24 	"/>
	<path class="st0" d="M1073.42,1631.79c0-12.48-1.47-23.55-4.41-33.22c-2.94-9.66-8.08-18.41-15.42-26.25
		c-7.34-7.83-17.62-15.29-30.84-22.39c-13.22-7.1-29.98-14.32-50.29-21.66c-22.03-7.83-41.98-16.58-59.84-26.25
		c-17.87-9.66-33.1-20.74-45.7-33.22c-12.61-12.48-22.34-26.8-29.19-42.95c-6.85-16.15-10.28-34.63-10.28-55.43
		c0-20.8,3.61-40.01,10.83-57.64c7.22-17.62,17.49-32.98,30.84-46.07c13.34-13.09,29.42-23.31,48.27-30.65
		c18.84-7.34,39.89-11.01,63.14-11.01c34.75,0,64.06,7.65,87.92,22.94c23.86,15.3,41.91,35.24,54.15,59.84
		c12.23,24.6,18.36,50.84,18.36,78.74h-67.55c0-20.06-3.25-37.87-9.73-53.41c-6.49-15.54-16.52-27.77-30.1-36.71
		c-13.58-8.93-31.27-13.4-53.05-13.4c-19.58,0-35.67,3.8-48.27,11.38c-12.61,7.59-21.91,17.87-27.9,30.84
		c-6,12.98-8.99,27.78-8.99,44.42c0,11.26,1.96,21.48,5.87,30.65c3.91,9.18,9.97,17.68,18.17,25.51
		c8.2,7.84,18.48,15.05,30.84,21.66c12.35,6.61,26.98,12.98,43.87,19.09c26.18,8.57,48.58,18.12,67.18,28.63
		c18.6,10.53,33.77,22.34,45.52,35.43c11.75,13.1,20.37,27.9,25.88,44.42c5.51,16.52,8.26,35.19,8.26,55.98
		c0,21.79-3.61,41.48-10.83,59.1c-7.22,17.62-17.68,32.67-31.39,45.15c-13.71,12.48-30.23,22.09-49.56,28.82
		c-19.34,6.73-41.12,10.1-65.35,10.1c-21.05,0-41.67-3.43-61.86-10.28c-20.19-6.85-38.49-17.13-54.88-30.84
		c-16.4-13.7-29.5-30.65-39.28-50.84c-9.79-20.19-14.68-43.62-14.68-70.3h67.55c0,18.36,2.69,34.08,8.08,47.17
		c5.38,13.1,12.85,23.93,22.39,32.49c9.54,8.57,20.49,14.87,32.86,18.91c12.35,4.04,25.63,6.06,39.83,6.06
		c19.58,0,36.03-3.42,49.38-10.28c13.34-6.85,23.37-16.64,30.1-29.37C1070.05,1664.22,1073.42,1649.17,1073.42,1631.79z"/>
	<path class="st0" d="M1480.91,1232.37h67.55v376.28c0,40.14-7.71,72.32-23.13,96.55c-15.42,24.23-35.67,41.79-60.76,52.68
		c-25.09,10.89-52.07,16.34-80.95,16.34c-30.84,0-58.62-5.45-83.33-16.34c-24.72-10.89-44.36-28.45-58.92-52.68
		c-14.56-24.23-21.84-56.41-21.84-96.55v-376.28h67.18v376.28c0,27.9,3.97,49.69,11.93,65.35c7.95,15.67,19.21,26.68,33.77,33.04
		c14.56,6.37,31.63,9.54,51.21,9.54c19.82,0,37.01-3.18,51.58-9.54c14.56-6.36,25.82-17.37,33.77-33.04
		c7.95-15.66,11.93-37.44,11.93-65.35V1232.37z"/>
	<polygon class="st0" points="2103.89,1232.37 2103.89,1766.88 2036.71,1766.88 2036.71,1558.37 2043,1351.37 1903.45,1766.88 
		1852.06,1766.88 1712.47,1350.42 1718.8,1558.37 1718.8,1766.88 1651.62,1766.88 1651.62,1232.37 1738.25,1232.37 1878.12,1668.13 
		2017.62,1232.37 	"/>
	<path class="st0" d="M2569.02,1232.37v534.51h-67.91l-214.03-412.26v412.26h-67.55v-534.51h67.55l215.13,413.36v-413.36H2569.02z"
		/>
	<path class="st0" d="M2705.21,1232.37l109.03,268.36l109.4-268.36H3000l-151.98,334.8v199.71h-67.55v-199.71l-151.98-334.8H2705.21
		z"/>
</g>
<g>
</g>
<g>
</g>
<g>
</g>
<g>
</g>
<g>
</g>
<g>
</g>
<g>
</g>
<g>
</g>
<g>
</g>
<g>
</g>
<g>
</g>
<g>
</g>
<g>
</g>
<g>
</g>
<g>
</g>
</svg>
