<?xml version="1.0" encoding="utf-8"?>
<!-- Generator: Adobe Illustrator 24.1.2, SVG Export Plug-In . SVG Version: 6.00 Build 0)  -->
<svg version="1.1" id="Layer_1" xmlns="http://www.w3.org/2000/svg" xmlns:xlink="http://www.w3.org/1999/xlink" x="0px" y="0px"
	 viewBox="0 0 3000 3000" style="enable-background:new 0 0 3000 3000;" xml:space="preserve">
<style type="text/css">
	.st0{fill:#FFFFFF;}
</style>
<path class="st0" d="M1421.1,1478.9c-3.2,25.4-9.2,50.7-9.1,76.1c0.4,80.1,3.1,160.2,4.7,240.3c1.5,72.9,2.4,145.8,4.5,218.6
	c1.3,44.8,4.5,89.6,7,137.2c-16.4,0-32.2,0.8-47.9-0.6c-3.6-0.3-8.6-8.1-9.4-12.9c-6.5-42.4-13.4-84.8-17.8-127.4
	c-7.6-73.5-13.5-147.2-20.1-220.8c-5.7-63.8-9.5-127.9-17.5-191.4c-9-71.8-19.6-143.4-33.2-214.5c-20.4-107.1-43.7-213.7-66.3-320.4
	c-25.3-119.4-55.5-237.6-94-353.5c-8.4-25.4-20.5-49.6-31.5-74.1c-2.5-5.5-6.8-10.4-10.9-15c-16.1-18.4-25-21.9-45.4-8.4
	c-34.4,22.7-67.7,47.3-99.7,73.3c-72,58.6-133.8,127.7-196.2,196c-21.9,24-44.2,47.7-66.5,71.4c-1.9,2-5.1,3.6-7.8,3.7
	c-14.8,0.4-29.6,0.2-49.2,0.2c7.2-13.2,11.4-24.2,18.4-33c36.2-45.8,73.3-90.9,109.9-136.5c59.5-74.2,117.9-149.4,178.4-222.8
	c51-61.8,103.7-122.7,167.5-171.7c28.4-21.8,62-36.7,93.4-54.6c5.3-3,11-5.1,18.9-8.8c-10.3-11.8-19.3-22.1-28.3-32.4
	c-49.4-56.4-94.1-115.8-116.2-188.7c-4.7-15.4-7-32.6-5.6-48.5c2.6-29.7,22.4-47.7,50.1-54.4c51.6-12.4,98.5-3.5,137.2,35.6
	c50,50.6,80.1,112.5,100.6,179.5c6.7,22,10.6,44.9,16.2,69.4c-19.7,1-35.9,1.7-53.2,2.6c-2.4-11.8-4.5-23.4-7.1-34.8
	c-17-73.6-46-141.7-95.6-199.4c-13.2-15.4-31.1-26.8-47.3-39.4c-9.2-7.2-18.2-4.5-26.7,2.7c-22.2,18.7-25.6,43.2-19.6,69.2
	c10.3,44.9,30.5,85.9,57,123.1c22.7,32,48.5,61.8,73.7,91.9c3.8,4.6,12.6,8.8,17.9,7.7c126-27.9,246.7-5.5,364.9,38.4
	c134.7,50,261.4,117,386.3,187.3c100,56.3,198.6,115.1,297.3,173.7c31,18.4,60.5,39.4,90.3,60.5c-25.7-0.3-49.2,2.9-75.6-10.9
	c-83.4-43.4-168.4-84.2-255.1-120.5c-116.4-48.8-235.5-90.8-358.2-121.3c-25.1-6.2-50.4-11.4-75.8-16c-42.1-7.7-77.8,13.6-93.4,53.6
	c-17.2,44.3-18,90.4-12.6,136.2c10.7,91.4,22.8,182.6,36.3,273.5c9.1,60.8,22.4,121,32.4,181.7c21.3,129,43.4,257.9,61.9,387.3
	c20,139.1,38.2,278.6,53.5,418.3c13.1,119.1,21.2,238.8,31.3,358.2c14.8,175.4,13.6,351.2,11.4,527c-0.6,46-3.8,91.9-6.1,137.8
	c-1.1,21.3-1.4,21.3-22.3,21.5c-1.5,0-3.1,0.1-4.7,0.1c-30.6,0.5-30.1,0.5-31.1-29.6c-4-117.8-7.1-235.6-13-353.3
	c-7.6-153.4-22.2-306.2-46-458c-18.2-115.6-46.1-229-77.7-341.6c-29.8-106.1-61.8-211.4-107.6-312c-4.2-9.2-9-18.1-13.6-27.2
	C1425.1,1478.4,1423.1,1478.7,1421.1,1478.9z M1659.2,2047.7c1-0.3,2-0.6,3-0.9c0-3.1,0.3-6.1,0-9.2c-9.9-86.2-19-172.6-30.1-258.7
	c-15.1-116.9-30.2-233.8-48.2-350.2c-16.9-109.8-38.8-218.9-56-328.6c-21.1-134.2-40.8-268.7-58.7-403.5
	c-5.5-41.8-5.4-84.7,7.6-126.1c12.5-40,37.6-65,80-72.7c48.3-8.8,95.7-4.5,143.1,5.7c142.1,30.6,278,80.3,412.6,133.8
	c4.7,1.9,9.4,3.7,14.2,5.5c-1.2-3.9-3.3-5.3-5.6-6.5c-130.5-70.5-259.9-143.3-391.9-210.8c-87.8-44.9-178.6-84.6-276.6-103.6
	c-58.8-11.4-117.6-18.8-175.7,3.4c-5,1.9-10,3.8-16.9,6.3c9,10.1,16.2,18.2,24.1,27.1c-16.3,0.8-30.1,1.8-44,2
	c-3.7,0.1-8.8-1-11-3.6c-7.7-8.9-14.9-8-24.5-2.8c-37.5,20.3-72.1,44.5-102.7,74.2c-62,60.3-119,124.9-172.5,192.8
	c-13.2,16.8-26.7,33.2-40.1,49.9c14.8-7,27.3-16.5,39.4-26.5c42-34.7,88.1-57.3,144.6-53.2c31.9,2.3,57.9,14.4,71.4,44
	c15.2,33.3,30.8,67,40.5,102c28.5,102.6,56.8,205.3,80.3,309.1c29.8,132.1,55,265.2,81.9,397.9c4.4,21.5,7.6,43.3,11.3,64.9
	c4.5-5,5.9-10.1,6.8-15.3c7.9-45.4,21.7-56.4,67.8-55.4c16.5,0.4,29.1,6.7,37.2,20.9c8.9,15.7,18.2,31.3,25.5,47.8
	c39.7,89.5,71.3,181.9,96.5,276.4c19.9,74.4,39.2,149,58.5,223.5C1654.3,2020.5,1656.4,2034.2,1659.2,2047.7z"/>
</svg>
